<!--?xml version="1.0" encoding="UTF-8"?--><svg id="Layer_1" xmlns="http://www.w3.org/2000/svg" xmlns:xlink="http://www.w3.org/1999/xlink" viewBox="0 0 1600 1600" style=""><defs><style>.cls-1,.cls-2,.cls-3{fill:none;}.cls-4{clip-path:url(#clippath);}.cls-5{fill:#020202;}.cls-6{fill:#fff;}.cls-7{fill:#ffc044;}.cls-8{fill:#fe3456;}.cls-9{fill:#efe4b5;}.cls-10{fill:#ff7c51;}.cls-11{fill:#4683ec;}.cls-2{stroke:#028b34;}.cls-2,.cls-3{stroke-linecap:round;stroke-linejoin:round;stroke-width:1.70px;}.cls-3{stroke:#020202;}</style><clipPath id="clippath"><rect class="cls-1" x="178.98" y="403.25" width="1242.04" height="805.98"></rect></clipPath></defs><g class="cls-4"><path class="cls-5" d="m696.51,836.05h151.03c27.86,0,50.48,22.62,50.48,50.48v190.28h-252v-190.28c0-27.86,22.62-50.48,50.48-50.48Z"></path><g id="Artwork_559"><circle id="C" class="cls-10" cx="768.01" cy="829.17" r="21.1"></circle><rect class="cls-10" x="746.91" y="775.63" width="42.2" height="53.54"></rect><path class="cls-5" d="m789.11,795.53s-13.24,15.6-42.2,21.72v-41.62h42.2v19.9Z"></path><ellipse class="cls-10" cx="809.25" cy="762.35" rx="16.39" ry="18.8"></ellipse><line class="cls-3" x1="814.53" y1="755.79" x2="804.76" y2="767.33"></line><ellipse class="cls-10" cx="727.89" cy="762.35" rx="16.39" ry="18.8"></ellipse><line class="cls-3" x1="717.95" y1="755.79" x2="732.38" y2="767.33"></line><path class="cls-10" d="m814.84,734.7s-.03.78-.13,2.17c-.1,1.57-.57,3.88-1.14,6.68-.62,3.06-1.38,6.7-1.94,10.55-1.35,9.51-7.48,24.25-11.18,31.14-5.96,11.09-16.35,18.56-31.85,18.44-16.13.12-25.87-7.35-31.83-18.44-3.71-6.89-9.83-21.63-11.19-31.14-1.07-7.4-2.87-13.98-3.08-17.23-.09-1.39-.13-2.17-.13-2.17,0,0-.06-6.48,1.04-12.72.4-2.27.94-4.51,1.71-6.4,2.8-6.89,12.29-28.17,43.49-27.55,31.22-.62,40.7,20.67,43.5,27.55.76,1.89,1.31,4.13,1.7,6.4,1.11,6.25,1.04,12.72,1.04,12.72Z"></path><line class="cls-3" x1="733.56" y1="781.15" x2="728.56" y2="767.33"></line><line class="cls-3" x1="803.61" y1="781.15" x2="808.61" y2="767.33"></line><path class="cls-3" d="m763.24,778.93s8.09-.56,15.65-.56"></path><path class="cls-6" d="m775.5,756.12s1.55-11.86,11.56-16.06c10.01-4.2,19.01,2.84,19.01,2.84,0,0-.81,11.62-11.9,15.9-11.09,4.28-18.68-2.67-18.68-2.67Z"></path><circle class="cls-5" cx="790.79" cy="749.51" r="10.22"></circle><path class="cls-6" d="m761.64,756.12s-1.55-11.86-11.56-16.06c-10.01-4.2-19.01,2.84-19.01,2.84,0,0,.81,11.62,11.9,15.9,11.09,4.28,18.68-2.67,18.68-2.67Z"></path><circle class="cls-5" cx="746.35" cy="749.51" r="10.22"></circle><path class="cls-3" d="m765.6,746.59s-4.06,9.25-3.36,14.64,7.28,7.21,7.28,7.21"></path><line class="cls-3" x1="772.04" y1="762.97" x2="774.98" y2="765.91"></line><path class="cls-3" d="m776.43,733.43s15.37-16.9,29.65-5.13"></path><path class="cls-3" d="m760.71,733.43s-15.4-14.96-29.69-3.2"></path><path class="cls-5" d="m811.83,752.81s.64-6.84.3-9.09c-.75-4.63-2.88-16.7-2.88-16.7,0,0-1.51,0-6.97-3.15h.06s-20-12.45-20-12.45c0,0,2.39,3.57,5.96,6.73,3.56,3.14,5.11,3.85,7.25,5.61-10.6-.49-26.89-2.2-33.4-7.34-9.55-7.54-23.84-10.26-23.84-10.26,0,0-8.89.68-12.18,15.23-3.28,14.54-.22,18.93-.96,22.16-.64,2.75,0,9.79,0,9.79,0,0-12.83-34.43,1.47-52.82,5-6.43,12.29-7.35,12.29-7.35,0,0,38.34-23.99,63.86,1.55,24.07,24.08,9.03,58.08,9.03,58.08Z"></path><path class="cls-5" d="m747.93,702.2c5.61,3.15,7.34,9.11,14.23,14.23,7.36,5.47,15.33,8.43,15.33,8.43,0,0-12.48-2.18-21.2-5.85-13.85-5.84-17.36-16.25-17.36-16.25"></path><path class="cls-5" d="m745.08,691.75s-8.95-3.74-17.19,1.94c-6.16,4.24-5.53,9.51-5.53,9.51,0,0,8.7-9.73,12.08-4.93"></path></g><g id="Artwork_1901"><path class="cls-5" d="m629.91,1008.84l-66.17-48.38c1.94-2.46,2.33-3.4,4.26-5.9,40.73-52.56,88.25-107.16,113.08-115l36.37,35.39-87.53,133.89Z"></path><circle id="C-2" class="cls-5" cx="694.8" cy="861.82" r="26.16"></circle><path class="cls-5" d="m877.87,859.79l-4.87,211.73h-205.2l9.28-211.73c.43-10.01,7.35-19.59,17.12-22.8,8.85-2.9,18.53-4.85,26.76-6.13,11.22-1.74,19.75-2.26,19.75-2.26h64.96s8.85,0,20.66,1c11.25.94,25.22,2.81,36.73,6.45,9.82,3.1,14.37,13.72,14.81,23.73Z"></path><path class="cls-9" d="m826.33,829.6l-.06,1.26-65,126.77-40.31-126.77c11.22-1.74,20.19-3.03,20.19-3.03h63.18s10.19.77,22,1.77Z"></path><line class="cls-2" x1="673.69" y1="943.47" x2="674.79" y2="912.22"></line><polyline class="cls-3" points="813.93 828.96 785.55 861.97 762.69 828.96 739.19 861.82 725.04 829.53"></polyline><polyline class="cls-2" points="700.54 836.99 726.57 888.13 698.4 887.81 761.27 983.34 832.02 886.63 808.93 886.63 839.71 833.21"></polyline><line class="cls-2" x1="761.27" y1="944.84" x2="761.27" y2="1069.23"></line><line class="cls-3" x1="762.69" y1="828.96" x2="761.27" y2="957.63"></line><circle id="C-3" class="cls-1" cx="765.55" cy="1054.32" r="70.98"></circle><path class="cls-5" d="m904.4,1015.5l72.24-39.13c-1.63-2.67-3.08-5.56-4.7-8.27-34.28-56.98-74.52-116.04-98.26-126.75l-40.28,30.87,71,143.26Z"></path><circle id="C-4" class="cls-5" cx="857.43" cy="861.87" r="26.16"></circle><rect class="cls-6" x="709.33" y="927.84" width="112.44" height="147.57" rx="10.83" ry="10.83"></rect><path class="cls-10" d="m828.16,1013.86c8.26-4,27.83,2.02,27.83,2.02l5.53,36.66s-31.68,18.24-42.91,6.51c-11.22-11.73,1.28-41.19,9.54-45.19Z"></path><circle id="C-5" class="cls-10" cx="858.83" cy="1034.2" r="18.54"></circle><path class="cls-10" d="m815.4,1024.46c-1.43-.22-7.23-.99-7.06-5.25.13-3.33,4.08-6.71,9.47-8,2.65-.63,13.56-3.05,13.2-2.9l2.18,14.61s-14.7,2.01-17.79,1.54Z"></path><circle id="C-6" class="cls-10" cx="832.76" cy="1015.52" r="7.42"></circle><path class="cls-10" d="m810.62,1038.31c-1.42-.31-7.14-1.47-6.7-5.7.35-3.31,3.61-5.84,9.08-6.77,2.68-.46,14.06-2.5,13.69-2.37l1.21,14.73s-14.23.79-17.29.12Z"></path><circle id="C-7" class="cls-10" cx="827.97" cy="1030.78" r="7.42"></circle><line class="cls-3" x1="810.74" y1="1025.71" x2="834.38" y2="1022.76"></line><path class="cls-10" d="m811.43,1049.76c-1.37-.48-6.92-2.29-5.99-6.45.73-3.25,4.27-5.38,9.81-5.66,2.72-.14,14.26-.83,13.87-.75l-.52,14.77s-14.23-.88-17.18-1.91Z"></path><circle id="C-8" class="cls-10" cx="829.54" cy="1044.32" r="7.42"></circle><path class="cls-10" d="m809.56,1061.27c-1.22-.78-6.21-3.82-4.34-7.65,1.46-2.99,5.39-4.25,10.85-3.26,2.68.49,8.97,1,8.57.99l-3.9,14.25s-8.54-2.65-11.18-4.33Z"></path><circle id="C-9" class="cls-10" cx="823.35" cy="1058.66" r="7.42"></circle><line class="cls-3" x1="807.9" y1="1050.15" x2="828.23" y2="1052.16"></line><path class="cls-3" d="m834.78,1022.66c3.94-1.11,6.24-5.21,5.12-9.16-.22-.77-.55-1.49-.98-2.12"></path><path class="cls-3" d="m831.66,1037.21c2.34-1.35,3.86-3.93,3.71-6.81-.18-3.58-2.87-6.43-6.27-6.96"></path><path class="cls-3" d="m829.02,1051.72c4.09.29,7.63-2.79,7.92-6.88.29-4.09-2.79-7.63-6.88-7.92"></path><path class="cls-3" d="m829.27,1063.13c1.98-2.61,2.04-6.33-.07-9.03-.63-.81-1.39-1.45-2.24-1.92"></path><line class="cls-3" x1="829.47" y1="1036.9" x2="809.18" y2="1038.25"></line><circle id="C-10" class="cls-5" cx="940.65" cy="995.11" r="40.97"></circle><path class="cls-5" d="m846.39,1071.88l-10.42-70.2s28.61-17.06,86.92-43.6l34.43,74.34-110.93,39.46Z"></path><line class="cls-2" x1="872.22" y1="1061.38" x2="859.85" y2="987.94"></line><path class="cls-10" d="m706.93,1014.64c-7.8-4.83-27.9-.85-27.9-.85l-9.27,35.9s29.64,21.4,42.01,10.89c12.37-10.51,2.96-41.11-4.85-45.93Z"></path><circle id="C-11" class="cls-10" cx="674.33" cy="1031.73" r="18.54"></circle><path class="cls-10" d="m718.54,1026.5c1.45-.07,7.29-.25,7.56-4.5.22-3.32-3.37-7.1-8.6-8.94-2.57-.9-13.18-4.43-12.83-4.24l-3.67,14.31s14.42,3.51,17.54,3.36Z"></path><circle id="C-12" class="cls-10" cx="702.18" cy="1015.83" r="7.42"></circle><path class="cls-10" d="m721.87,1040.77c1.44-.17,7.26-.72,7.25-4.98,0-3.33-3-6.18-8.34-7.67-2.62-.73-13.73-3.93-13.37-3.76l-2.72,14.52s14.08,2.25,17.18,1.9Z"></path><circle id="C-13" class="cls-10" cx="705.38" cy="1031.49" r="7.42"></circle><line class="cls-3" x1="723.04" y1="1028.23" x2="699.82" y2="1022.86"></line><path class="cls-10" d="m719.88,1052.08c1.41-.33,7.12-1.57,6.62-5.8-.39-3.3-3.7-5.79-9.18-6.64-2.69-.42-14.1-2.29-13.72-2.17l-1,14.74s14.24.59,17.29-.13Z"></path><circle id="C-14" class="cls-10" cx="702.42" cy="1044.8" r="7.42"></circle><path class="cls-10" d="m720.55,1063.71c1.3-.65,6.57-3.17,5.11-7.17-1.14-3.13-4.93-4.78-10.46-4.35-2.71.21-9.02.07-8.63.1l2.41,14.58s8.77-1.76,11.57-3.16Z"></path><circle id="C-15" class="cls-10" cx="707.11" cy="1059.7" r="7.42"></circle><line class="cls-3" x1="723.35" y1="1052.83" x2="702.92" y2="1052.74"></line><path class="cls-3" d="m699.44,1022.72c-3.81-1.51-5.67-5.83-4.15-9.63.3-.75.7-1.42,1.19-2.01"></path><path class="cls-3" d="m701.04,1037.52c-2.19-1.58-3.44-4.31-3-7.16.55-3.54,3.51-6.1,6.95-6.27"></path><path class="cls-3" d="m702.18,1052.22c-4.1-.13-7.31-3.56-7.17-7.66.13-4.1,3.56-7.31,7.66-7.17"></path><path class="cls-3" d="m700.76,1063.54c-1.7-2.8-1.38-6.5,1-8.98.71-.74,1.54-1.3,2.42-1.68"></path><line class="cls-3" x1="703.25" y1="1037.43" x2="723.3" y2="1040.86"></line><circle id="C-16" class="cls-5" cx="596.96" cy="984.44" r="40.97"></circle><path class="cls-5" d="m682.83,1070.48l17.58-68.76s-26.71-19.91-81.98-52.3l-41.89,70.41,106.29,50.65Z"></path><line class="cls-2" x1="658.22" y1="1057.39" x2="678.07" y2="985.61"></line></g><rect class="cls-9" x="422.45" y="1113.7" width="697.04" height="348.21"></rect><rect class="cls-5" x="422.45" y="1113.7" width="697.04" height="23.43"></rect><rect class="cls-11" x="379.05" y="1076.81" width="783.83" height="36.89"></rect><rect class="cls-7" x="562.18" y="1002.62" width="16.67" height="22.64" transform="translate(8.66 2032.7) rotate(-121.76)"></rect><path class="cls-8" d="m602.38,1009.86c-9.83,6.08-15.31,15.03-12.24,19.99,1.59,2.58,5.19,3.56,9.65,3.06-2.52,3.63-3.36,7.09-1.9,9.45,1.6,2.59,5.62,3.29,10.6,2.29l2.99,4.84,22.77-14.1-3.1-5.01c2.85-3.85,3.87-7.56,2.33-10.05-1.46-2.36-4.93-3.15-9.3-2.51,2.44-3.77,3.15-7.42,1.56-10-2.68-4.32-10.97-4.18-19.56-.04-1.26.6-2.53,1.3-3.79,2.08Z"></path><path class="cls-8" d="m588.37,987.24c-9.83,6.08-20.28,7-23.35,2.04-1.59-2.58-.87-6.23,1.56-10-4.38.63-7.85-.15-9.31-2.51-1.6-2.59-.44-6.5,2.67-10.51l-2.99-4.84,22.77-14.1,3.1,5.01c4.72-.84,8.49-.09,10.04,2.4,1.46,2.36.62,5.82-1.9,9.45,4.46-.5,8.05.49,9.65,3.06,2.68,4.32-1.15,11.68-8.69,17.53-1.1.86-2.29,1.68-3.55,2.46Z"></path><rect class="cls-7" x="576.84" y="980.64" width="37.07" height="35.83" transform="translate(59.68 2030.35) rotate(-121.76)"></rect><path class="cls-7" d="m475.08,1073.01h0c2.39,3.87,7.53,4.97,11.3,2.42l76.8-51.84-4.57-7.39-80.65,45.62c-3.96,2.24-5.26,7.32-2.87,11.19Z"></path><rect class="cls-7" x="577.42" y="1066.35" width="102.06" height="10.35" transform="translate(1256.9 2143.05) rotate(-180)"></rect><path class="cls-8" d="m581.34,1049.49h94.21v7.9c0,4.95-4.02,8.97-8.97,8.97h-76.28c-4.95,0-8.97-4.02-8.97-8.97v-7.9h0Z" transform="translate(1256.9 2115.84) rotate(-180)"></path><rect class="cls-5" x="226.28" y="986.32" width="18.12" height="526.26" transform="translate(470.68 2498.89) rotate(-180)"></rect><polygon class="cls-11" points="178.98 1149.67 296.46 1057.64 235.34 424.08 178.98 1149.67"></polygon><polygon class="cls-5" points="296.46 1057.64 178.98 986.32 193.37 903.7 235.34 424.08 296.46 1057.64"></polygon><polygon class="cls-11" points="244.43 941.84 178.98 986.32 235.34 424.08 237.72 872.72 244.43 941.84"></polygon><polygon class="cls-5" points="244.43 941.84 199.66 892.92 218.51 857 235.34 424.08 244.43 941.84"></polygon><polygon class="cls-11" points="314.92 831.91 199.66 892.92 235.34 424.08 314.92 831.91"></polygon><circle class="cls-5" cx="235.34" cy="424.08" r="8.98"></circle><rect class="cls-5" x="1299.64" y="986.32" width="18.12" height="459.59" transform="translate(2617.41 2432.23) rotate(-180)"></rect><polygon class="cls-11" points="1252.34 1149.67 1369.83 1057.64 1308.7 424.08 1252.34 1149.67"></polygon><polygon class="cls-5" points="1369.83 1057.64 1252.34 986.32 1266.74 903.7 1308.7 424.08 1369.83 1057.64"></polygon><polygon class="cls-11" points="1317.8 941.84 1252.34 986.32 1308.7 424.08 1311.09 872.72 1317.8 941.84"></polygon><polygon class="cls-5" points="1317.8 941.84 1273.02 892.92 1291.88 857 1308.7 424.08 1317.8 941.84"></polygon><polygon class="cls-11" points="1388.29 831.91 1273.02 892.92 1308.7 424.08 1388.29 831.91"></polygon><circle class="cls-5" cx="1308.7" cy="424.08" r="8.98"></circle><rect class="cls-9" x="862.33" y="1025.58" width="143.67" height="51.23"></rect><polygon class="cls-5" points="1006 1025.58 1028.27 1076.81 1006 1076.81 1006 1025.58"></polygon></g></svg>